# xmcd
#
# Track frame offsets:
#	150
#	16502
#	38532
#	44670
#	56515
#	69072
#	76365
#	83882
#	93882
#	105265
#	113947
#	138422
#	157645
#	170347
#	184130
#	193532
#	205322
#	218357
#	239290
#
# Disc length: 3466 seconds
#
# Revision: 0
# Processed by: cddbd v1.5.2PL0 Copyright (c) Steve Scherf et al.
# Submitted via: EZCDAudioConverter 1.3.4.1
#
DISCID=e00d8813
DTITLE=Solid Pleasure - Yello
DYEAR=1900
DGENRE=
TTITLE0=Bimbo
TTITLE1=Night Flanger
TTITLE2=Reverse Lion
TTITLE3=Downtown Samba
TTITLE4=Magneto
TTITLE5=Massage
TTITLE6=Assistant's Cry
TTITLE7=Bostich
TTITLE8=Rock Stop
TTITLE9=Coast To Polka
TTITLE10=Blue Green
TTITLE11=Eternal Legs
TTITLE12=Stanztrigger
TTITLE13=Bananas To The Beat
TTITLE14=Thrill Wave
TTITLE15=I.T. Splash
TTITLE16=Gluehead
TTITLE17=Smirak's Train
TTITLE18=Bostich (N'est-Ce Pas)
EXTD=
EXTT0=
EXTT1=
EXTT2=
EXTT3=
EXTT4=
EXTT5=
EXTT6=
EXTT7=
EXTT8=
EXTT9=
EXTT10=
EXTT11=
EXTT12=
EXTT13=
EXTT14=
EXTT15=
EXTT16=
EXTT17=
EXTT18=
PLAYORDER=
